<svg width="101" height="30" viewBox="0 0 101 30" fill="none" xmlns="http://www.w3.org/2000/svg">
<g clip-path="url(#clip0)">
<path d="M47.9293 11.5989C47.9293 18.9774 45.2292 20.4742 37.2344 20.4742H32.7083V29.4158C32.7083 29.8895 32.5978 30 32.1607 30H27.5242C27.0855 30 26.9766 29.891 26.9766 29.4158V3.12631C26.9766 2.72368 27.0855 2.65262 27.5242 2.61473C30.7357 2.32262 34.2407 2.2121 37.2344 2.2121C45.2292 2.2121 47.9293 4.29947 47.9293 11.5989ZM32.7083 7.21578V16.0579H36.6536C40.9966 16.0579 42.1297 15.4737 42.1297 11.7489C42.1297 8.09525 40.9966 7.21894 36.6536 7.21894L32.7083 7.21578Z" fill="#593493"/>
<path d="M61.2739 9.76574C61.6748 9.87468 61.8578 10.0215 61.8578 10.4952V13.4952C61.8578 13.8615 61.6385 14.0431 61.236 14.0431H57.8052C55.9115 14.0431 55.2502 14.3352 55.2502 15.9063V29.4205C55.2502 29.8215 55.0672 30.0047 54.7026 30.0047H50.3564C49.9919 30.0047 49.8088 29.8215 49.8088 29.4205V14.5136C49.8088 9.911 53.0945 9.36469 56.4164 9.36469C57.4769 9.36469 59.9956 9.47363 61.2739 9.76574Z" fill="#593493"/>
<path d="M81.7611 19.5916C81.7611 27.9174 80.0441 30 72.4501 30C64.894 30 63.1392 27.9174 63.1392 19.5916C63.1392 11.2232 64.8925 9.18158 72.4501 9.18158C80.0362 9.18158 81.7611 11.2263 81.7611 19.5916ZM68.5821 19.5916C68.5821 24.1926 69.1297 25.3247 72.4517 25.3247C75.8099 25.3247 76.3576 24.1926 76.3576 19.5916C76.3576 14.9905 75.8099 13.8568 72.4517 13.8568C69.1218 13.8568 68.5742 14.9889 68.5742 19.5916H68.5821Z" fill="#593493"/>
<path d="M99.9095 9.54637C100.31 9.54637 100.53 9.72953 100.53 10.0943V12.5779C100.523 12.8314 100.433 13.0756 100.274 13.2727L91.2945 25.3248H100.383C100.784 25.3248 101.003 25.5079 101.003 25.8727V29.4158C101.003 29.8169 100.784 30.0001 100.383 30.0001H84.0982C83.6611 30.0001 83.4417 29.8169 83.4417 29.4158V27.0364C83.4433 26.7825 83.5337 26.5372 83.6974 26.3432L92.9657 14.1127H84.5007C84.0619 14.1127 83.8789 13.9295 83.8789 13.5648V10.0911C83.8789 9.72637 84.0619 9.54321 84.5007 9.54321L99.9095 9.54637Z" fill="#593493"/>
<path d="M11.495 0.0915241L18.8775 4.35468C18.9803 4.41457 19.0657 4.5004 19.125 4.60361C19.1843 4.70682 19.2155 4.82378 19.2155 4.94284C19.2155 5.06189 19.1843 5.17886 19.125 5.28207C19.0657 5.38528 18.9803 5.47111 18.8775 5.531L11.495 9.79415C11.3919 9.85372 11.275 9.88509 11.1559 9.88512C11.0368 9.88514 10.9198 9.85382 10.8167 9.79431C10.7136 9.73479 10.6279 9.64917 10.5683 9.54604C10.5087 9.44292 10.4773 9.32591 10.4771 9.20679V0.680471C10.4775 0.561395 10.509 0.444484 10.5686 0.341417C10.6282 0.23835 10.7138 0.152735 10.8168 0.0931239C10.9198 0.0335127 11.0367 0.00199179 11.1557 0.00171088C11.2747 0.00142997 11.3917 0.0324 11.495 0.0915241Z" fill="#593493"/>
<path d="M8.83596 19.9484H0.923244C0.833997 19.9486 0.745586 19.9312 0.663073 19.8971C0.58056 19.8631 0.505565 19.8131 0.442385 19.7501C0.379204 19.687 0.32908 19.6121 0.294879 19.5296C0.260678 19.4471 0.243072 19.3587 0.243073 19.2694V11.351C0.244775 11.2173 0.28581 11.087 0.361054 10.9765C0.436298 10.866 0.542417 10.7801 0.666156 10.7296C0.789895 10.6791 0.92577 10.6661 1.05681 10.6924C1.18786 10.7187 1.30827 10.783 1.403 10.8773L9.32518 18.7894C9.42064 18.8849 9.48545 19.0068 9.51133 19.1393C9.53721 19.2719 9.52297 19.4092 9.47045 19.5336C9.41792 19.6581 9.32949 19.764 9.21646 19.8379C9.10344 19.9118 8.97096 19.9502 8.83596 19.9484Z" fill="#FF7F00"/>
<path d="M8.83754 20.7206H0.921666C0.546889 20.7206 0.243073 21.0246 0.243073 21.3995V29.3195C0.243073 29.6945 0.546889 29.9985 0.921666 29.9985H8.83754C9.21232 29.9985 9.51614 29.6945 9.51614 29.3195V21.3995C9.51614 21.0246 9.21232 20.7206 8.83754 20.7206Z" fill="#FF7F00"/>
<path d="M4.88114 0.0615845H4.87956C2.18465 0.0615845 0 2.24738 0 4.94369V4.94527C0 7.64158 2.18465 9.82737 4.87956 9.82737H4.88114C7.57605 9.82737 9.7607 7.64158 9.7607 4.94527V4.94369C9.7607 2.24738 7.57605 0.0615845 4.88114 0.0615845Z" fill="#FF7F00"/>
<path d="M11.0217 19.9468C13.2283 19.7726 15.3005 18.8168 16.866 17.2511C18.4315 15.6854 19.3876 13.6124 19.5625 11.4047C19.5694 11.3113 19.557 11.2175 19.5261 11.1291C19.4951 11.0407 19.4463 10.9597 19.3826 10.8911C19.3189 10.8224 19.2417 10.7677 19.1559 10.7303C19.0701 10.6929 18.9775 10.6736 18.8839 10.6736H10.9696C10.7896 10.6736 10.617 10.7452 10.4897 10.8725C10.3625 10.9998 10.291 11.1725 10.291 11.3526V19.2679C10.2909 19.3615 10.3102 19.4542 10.3476 19.54C10.385 19.6259 10.4397 19.7031 10.5083 19.7668C10.5769 19.8305 10.6579 19.8794 10.7462 19.9104C10.8345 19.9414 10.9283 19.9538 11.0217 19.9468Z" fill="#FF7F00"/>
</g>
<defs>
<clipPath id="clip0">
<rect width="101" height="30" fill="white"/>
</clipPath>
</defs>
</svg>
